<svg width="20" height="20" viewBox="0 0 20 20" fill="white" xmlns="http://www.w3.org/2000/svg">
<path fill-rule="evenodd" clip-rule="evenodd" d="M12.8 10C12.8 10.1333 12.75 10.25 12.65 10.35L9.85 13.15C9.68333 13.3167 9.5 13.3583 9.3 13.275C9.1 13.1917 9 13.0333 9 12.8L9 11H7V9H9L9 7.2C9 6.96667 9.1 6.80833 9.3 6.725C9.5 6.64167 9.68333 6.68333 9.85 6.85L12.65 9.65C12.75 9.75 12.8 9.86667 12.8 10ZM19.212 13.9C19.7373 12.6833 20 11.3833 20 10C20.0007 8.61667 19.7383 7.31667 19.213 6.1C18.6877 4.88333 17.975 3.825 17.075 2.925C16.175 2.02567 15.1167 1.31333 13.9 0.788001C12.6833 0.262668 11.3833 -6.79878e-07 10 1.26719e-06C8.61666 -0.000665339 7.31667 0.261669 6.1 0.787002C4.88333 1.31234 3.825 2.025 2.925 2.925C2.02567 3.825 1.31333 4.88334 0.787999 6.1C0.262666 7.31667 0 8.61667 0 10C0.00066629 11.3833 0.263333 12.6833 0.788 13.9C1.31267 15.1167 2.025 16.175 2.925 17.075C3.825 17.9743 4.88333 18.6867 6.1 19.212C7.31667 19.7373 8.61667 20 10 20C11.3833 19.9993 12.6833 19.7367 13.9 19.212C15.1167 18.6873 16.175 17.975 17.075 17.075C17.9743 16.175 18.6867 15.1167 19.212 13.9ZM15.663 4.337C17.221 5.89567 18 7.78333 18 10C18.0007 12.2173 17.2217 14.105 15.663 15.663C14.1043 17.221 12.2167 18 10 18C7.78267 18.0007 5.895 17.2217 4.337 15.663C2.779 14.1043 2 12.2167 2 10C1.99933 7.78267 2.77833 5.895 4.337 4.337C5.89567 2.779 7.78333 2 10 2C12.2173 1.99933 14.105 2.77833 15.663 4.337Z" />
</svg>
